<svg width="104" height="106" xmlns="http://www.w3.org/2000/svg" xmlns:xlink="http://www.w3.org/1999/xlink" xmlns:svgjs="http://svgjs.com/svgjs" viewBox="136 314 104 106"><svg width="104" height="106" xmlns="http://www.w3.org/2000/svg" xmlns:xlink="http://www.w3.org/1999/xlink" xmlns:svgjs="http://svgjs.com/svgjs" viewBox="136 314 104 106" x="136" y="314"><svg width="10" height="11" xmlns="http://www.w3.org/2000/svg" xmlns:xlink="http://www.w3.org/1999/xlink" xmlns:svgjs="http://svgjs.com/svgjs" viewBox="0 0.501 10 9.999" fill="#4a4b4d" x="168" y="354"><svg xmlns="http://www.w3.org/2000/svg" xmlns:xlink="http://www.w3.org/1999/xlink" width="10" height="11" viewBox="0.059 0.809 9.527 9.526"><path paint-order="stroke fill markers" fill-rule="evenodd" d="M9.587 5.572a4.763 4.763 0 1 0-9.527 0 4.763 4.763 0 0 0 9.527 0zm-6.3.868a2.183 2.183 0 1 1 0-4.365 2.183 2.183 0 0 1 0 4.365z"/></svg></svg><svg width="11" height="11" xmlns="http://www.w3.org/2000/svg" xmlns:xlink="http://www.w3.org/1999/xlink" xmlns:svgjs="http://svgjs.com/svgjs" fill="#4a4b4d" x="197" y="354"><svg xmlns="http://www.w3.org/2000/svg" xmlns:xlink="http://www.w3.org/1999/xlink" width="11" height="11" viewBox="0.518 0.809 9.526 9.526"><path paint-order="stroke fill markers" fill-rule="evenodd" d="M5.282.809a4.763 4.763 0 1 0-.001 9.526 4.763 4.763 0 0 0 0-9.526zM3.745 6.44a2.182 2.182 0 0 1-2.182-2.183 2.182 2.182 0 1 1 4.365 0A2.183 2.183 0 0 1 3.745 6.44z"/></svg></svg><svg width="15" height="14" xmlns="http://www.w3.org/2000/svg" xmlns:xlink="http://www.w3.org/1999/xlink" xmlns:svgjs="http://svgjs.com/svgjs" viewBox="0.247 0 14.507 14" fill="#4a4b4d" x="180" y="376"><svg xmlns="http://www.w3.org/2000/svg" xmlns:xlink="http://www.w3.org/1999/xlink" width="15" height="14" viewBox="0.84 0.733 13.425 12.956"><path paint-order="stroke fill markers" fill-rule="evenodd" d="M14.265 9.834c0-3.707-3.006-9.101-6.713-9.101C3.845.733.84 6.127.84 9.833c0 3.708 3.005 3.856 6.712 3.856s6.713-.148 6.713-3.855z"/></svg></svg><svg width="40" height="18" xmlns="http://www.w3.org/2000/svg" xmlns:xlink="http://www.w3.org/1999/xlink" xmlns:svgjs="http://svgjs.com/svgjs" viewBox="0 0.394 40 17.213" fill="#4a4b4d" x="169" y="389"><svg xmlns="http://www.w3.org/2000/svg" xmlns:xlink="http://www.w3.org/1999/xlink" width="40" height="18" viewBox="0.534 0.689 38.807 16.699"><path paint-order="stroke fill markers" fill-rule="evenodd" d="M19.28 17.388c11.08 0 20.06-4.757 20.06-10.626 0-2.259-1.334-4.352-3.604-6.073.847 1.175 1.315 2.45 1.315 3.783 0 5.869-8.981 10.626-20.06 10.626-6.815 0-12.83-1.802-16.457-4.552 2.88 3.999 10.184 6.842 18.747 6.842z"/></svg></svg><svg width="14" height="19" xmlns="http://www.w3.org/2000/svg" xmlns:xlink="http://www.w3.org/1999/xlink" xmlns:svgjs="http://svgjs.com/svgjs" viewBox="0.375 0 13.25 19" fill="#4a4b4d" x="152" y="349"><svg xmlns="http://www.w3.org/2000/svg" xmlns:xlink="http://www.w3.org/1999/xlink" width="14" height="19" viewBox="0.685 0.863 12.473 17.886"><path paint-order="stroke fill markers" fill-rule="evenodd" d="M.685 10.404c.401 3.833 1.705 6.77 3.395 7.346 1.68.57 4.056.918 6.78 1a18.519 18.519 0 0 1-.825-2.264c-1.7-5.86-.313-11.748 3.124-15.413a49.344 49.344 0 0 0-4.424-.21c-1.943 0-3.78 0-5.209.632-.345.153-.802.542-1.256 1.126.677.25 1.302.6 1.861 1.032-.041.074-.086.144-.132.218a61.092 61.092 0 0 0-3.314 6.533z"/></svg></svg><svg width="14" height="19" xmlns="http://www.w3.org/2000/svg" xmlns:xlink="http://www.w3.org/1999/xlink" xmlns:svgjs="http://svgjs.com/svgjs" viewBox="0.358 0 13.285 19" fill="#4a4b4d" x="209" y="349"><svg xmlns="http://www.w3.org/2000/svg" xmlns:xlink="http://www.w3.org/1999/xlink" width="14" height="19" viewBox="0.907 0.863 12.51 17.891"><path paint-order="stroke fill markers" fill-rule="evenodd" d="M3.937 16.156a18.25 18.25 0 0 1-.94 2.599c2.827-.067 5.297-.417 7.027-1.005 1.688-.575 2.99-3.505 3.393-7.333A61.131 61.131 0 0 0 9.95 3.704c.55-.417 1.228-.833 1.885-1.082-.453-.585-.912-.974-1.258-1.127C9.15.863 7.312.863 5.37.863c-1.468 0-2.972.077-4.462.213 3.28 3.64 4.614 9.36 3.03 15.08z"/></svg></svg><svg width="93" height="71" xmlns="http://www.w3.org/2000/svg" xmlns:xlink="http://www.w3.org/1999/xlink" xmlns:svgjs="http://svgjs.com/svgjs" viewBox="0 0.025 93 70.95" fill="#4a4b4d" x="147" y="349"><svg xmlns="http://www.w3.org/2000/svg" xmlns:xlink="http://www.w3.org/1999/xlink" width="93" height="71" viewBox="0.655 0.33 91.45 69.768"><path paint-order="stroke fill markers" fill-rule="evenodd" d="M90.841 8.55c-1.143-3.272-2.935-6.07-5.094-8.22-.06.262-.128.503-.201.702-.5 1.361-1.551 1.964-2.247 2.362-.689.394-.78.47-.85.9l-.08.502c1.506 1.383 2.761 3.256 3.538 5.477 2.04 5.842 0 11.873-4.563 13.464a6.878 6.878 0 0 1-1.68.359c-.016-.083-.028-.165-.045-.252a59.02 59.02 0 0 0-1.198-5.112c-1.1 1.818-2.513 3.23-4.36 3.86-2.853.97-6.705 1.504-10.848 1.504-.634 0-1.266-.014-1.893-.038-.055.052-.106.11-.16.161 6.1 4.242 9.947 10.36 9.992 17.186.082 12.936-13.504 23.51-30.348 23.622-16.845.106-30.568-10.29-30.654-23.226-.042-6.827 3.722-12.993 9.766-17.314-.147-.134-.285-.28-.428-.421-.53.017-1.062.03-1.596.03-4.144 0-7.996-.534-10.848-1.505-1.832-.623-3.237-2.016-4.332-3.81a59.067 59.067 0 0 0-1.257 5.575 52.482 52.482 0 0 0-.737 6.575c-.05.894-.066 1.784-.062 2.667.148 22.982 17.198 36.647 40.18 36.499 22.983-.149 39.851-14.036 39.703-37.02-.004-.798-.033-1.602-.083-2.41a11.114 11.114 0 0 0 3.096-.606c7.284-2.544 10.55-12.174 7.289-21.51z"/></svg></svg><svg width="49" height="35" xmlns="http://www.w3.org/2000/svg" xmlns:xlink="http://www.w3.org/1999/xlink" xmlns:svgjs="http://svgjs.com/svgjs" viewBox="0.235 0 48.53 35" fill="#4a4b4d" x="163" y="314"><svg xmlns="http://www.w3.org/2000/svg" xmlns:xlink="http://www.w3.org/1999/xlink" width="49" height="35" viewBox="0.717 0 47.562 34.301"><path paint-order="stroke fill markers" fill-rule="evenodd" d="M16.035 33.05c.457.164.905.35 1.341.566 2.367.454 4.77.685 7.145.685 2.152 0 4.323-.199 6.468-.571 1.1-.61 2.278-1.048 3.502-1.318 3.86-1.634 8.934-3.004 13.787-3.72-.151-.152-.299-.31-.45-.46-2.068-2.047-10.117-8.344-10.987-9.1C33.831 16.512 25.745 9.903 23.85 0c-1.615 2.025-2.462 4.615-2.503 7.198-.044 2.758.628 5.49 1.887 7.919-2.182-1.29-5.995-7.755-6.799-12.376-2.758 4.014-1.924 12.5-.748 14.865-3.214-1.334-5.814-7.087-5.87-9.477-1.613 2.025-3.518 8.755-.561 13.8-3.078 1.793-5.94 4.082-8.538 6.747 5.509.801 11.317 2.45 15.318 4.373z"/></svg></svg><svg width="13" height="31" xmlns="http://www.w3.org/2000/svg" xmlns:xlink="http://www.w3.org/1999/xlink" xmlns:svgjs="http://svgjs.com/svgjs" viewBox="0.13 0 12.74 31" fill="#4a4b4d" x="136" y="349"><svg xmlns="http://www.w3.org/2000/svg" xmlns:xlink="http://www.w3.org/1999/xlink" width="13" height="31" viewBox="-0.001 0.33 12.469 30.341"><path paint-order="stroke fill markers" fill-rule="evenodd" d="M12.468 24.1a6.843 6.843 0 0 1-1.707-.363c-4.563-1.591-6.604-7.622-4.563-13.464.775-2.221 2.03-4.094 3.538-5.477l-.08-.502c-.07-.43-.163-.506-.85-.9-.696-.398-1.749-1-2.247-2.361-.073-.2-.14-.44-.201-.703-2.16 2.15-3.952 4.948-5.094 8.22-3.261 9.337.003 18.967 7.288 21.511a11.06 11.06 0 0 0 3.137.61c.115-2.168.38-4.366.779-6.571z"/></svg></svg></svg><svg width="89" height="29" xmlns="http://www.w3.org/2000/svg" xmlns:xlink="http://www.w3.org/1999/xlink" xmlns:svgjs="http://svgjs.com/svgjs" viewBox="0 0.315 89 28.37" fill="#fc6011" x="143" y="343"><svg xmlns="http://www.w3.org/2000/svg" width="89" height="29" viewBox="0.974 0.459 87.156 27.782"><path paint-order="stroke fill markers" fill-rule="evenodd" d="M86.7.836c-2.704-1.01-15.162.332-15.162.332h.003c-7.162.63-14.781 2.922-18.794 5.126-.182.037-.394.08-.65.128a39.51 39.51 0 0 1-15.151 0 64.45 64.45 0 0 1-.556-.109c-4.004-2.21-11.645-4.512-18.826-5.144h.002S5.108-.176 2.404.835C.63 1.499.829 5.11 1.3 6.394 1.907 8.05 4.1 7.63 4.485 9.996c.78 4.787 2.122 15.127 7.156 16.84 2.773.943 6.46 1.405 10.25 1.405 4.5 0 9.144-.652 12.564-1.925 5.504-2.05 6.841-7.837 6.755-12.172a1.887 1.887 0 0 1 1.539-1.885c.588-.111 1.179-.216 1.772-.216.614 0 1.224.112 1.833.229a1.887 1.887 0 0 1 1.54 1.884c-.084 4.334 1.255 10.112 6.755 12.16 3.42 1.273 8.064 1.925 12.564 1.925 3.79 0 7.477-.462 10.25-1.405 5.034-1.713 6.376-12.053 7.156-16.84.385-2.365 2.579-1.946 3.186-3.602.47-1.284.668-4.895-1.104-5.558zM33.568 24.843c-5.637 1.949-15.73 2.483-21.084.662-3.1-1.055-4.782-5.975-4.782-11.598 0-4.125 2.286-7.317 4.077-8.108 1.786-.79 3.85-.79 5.957-.79 6.57 0 14.314 1.42 17.995 3.682 1.767 1.087 2.929 2.763 3.038 4.365.182 2.619.518 9.81-5.2 11.787zm43.055.662c-5.354 1.82-15.447 1.287-21.086-.662-5.717-1.977-5.381-9.168-5.2-11.787.11-1.602 1.27-3.278 3.038-4.365C57.055 6.43 64.798 5.01 71.368 5.01c2.11 0 4.172 0 5.959.79 1.79.791 4.076 3.983 4.076 8.108 0 5.623-1.681 10.543-4.781 11.598z"/></svg></svg></svg>