<svg width="455" height="451" xmlns="http://www.w3.org/2000/svg" xmlns:xlink="http://www.w3.org/1999/xlink" xmlns:svgjs="http://svgjs.com/svgjs"><svg width="376" height="383" xmlns="http://www.w3.org/2000/svg" xmlns:xlink="http://www.w3.org/1999/xlink" xmlns:svgjs="http://svgjs.com/svgjs" viewBox="0.01 0 375.981 383" fill="#4a4b4d" opacity=".278" y="24"><svg xmlns="http://www.w3.org/2000/svg" xmlns:xlink="http://www.w3.org/1999/xlink" width="376" height="383" viewBox="0 0 374.999 382"><path paint-order="stroke fill markers" fill-rule="evenodd" d="M358 382h-67c-8.624 0-15.883-6.448-16.885-15h-.218c-6.815-42.879-43.151-74-86.399-74-43.247 0-79.582 31.121-86.397 74h-.219c-1 8.551-8.258 15-16.883 15H17c-8.623 0-15.882-6.448-16.884-15H0V0h375v367h-.118c-1 8.551-8.258 15-16.882 15z"/></svg></svg><svg width="376" height="383" xmlns="http://www.w3.org/2000/svg" xmlns:xlink="http://www.w3.org/1999/xlink" xmlns:svgjs="http://svgjs.com/svgjs" viewBox="0.01 0 375.98 383" fill="#fc6011"><svg xmlns="http://www.w3.org/2000/svg" xmlns:xlink="http://www.w3.org/1999/xlink" width="376" height="383" viewBox="0 0 374.999 382.001"><path paint-order="stroke fill markers" fill-rule="evenodd" d="M358 382h-67c-8.624 0-15.883-6.448-16.885-15h-.218c-6.815-42.879-43.151-74-86.399-74-43.247 0-79.582 31.122-86.397 74h-.219c-1 8.551-8.258 15-16.883 15H17c-8.623 0-15.882-6.448-16.884-15H0V0h375v367h-.118c-1 8.551-8.258 15-16.882 15z"/></svg></svg><svg width="455" height="451" xmlns="http://www.w3.org/2000/svg" xmlns:xlink="http://www.w3.org/1999/xlink" xmlns:svgjs="http://svgjs.com/svgjs"><svg width="455" height="451" xmlns="http://www.w3.org/2000/svg" xmlns:xlink="http://www.w3.org/1999/xlink" xmlns:svgjs="http://svgjs.com/svgjs"><svg width="117" height="123" xmlns="http://www.w3.org/2000/svg" xmlns:xlink="http://www.w3.org/1999/xlink" xmlns:svgjs="http://svgjs.com/svgjs" viewBox="0 21.076 117 80.849" fill="#fff" opacity=".141"><svg xmlns="http://www.w3.org/2000/svg" xmlns:xlink="http://www.w3.org/1999/xlink" width="117" height="123" viewBox="0.999 56 177.999 123"><path paint-order="stroke fill markers" fill-rule="evenodd" d="M89.999 179c-49.217 0-89-39.783-89-89 0-34 39.783-34 89-34s89 0 89 34c0 49.217-39.783 89-89 89z"/></svg></svg><svg width="290" height="130" xmlns="http://www.w3.org/2000/svg" xmlns:xlink="http://www.w3.org/1999/xlink" xmlns:svgjs="http://svgjs.com/svgjs" viewBox="0.5 0 289 130" fill="#fff" opacity=".141" x="165"><svg xmlns="http://www.w3.org/2000/svg" xmlns:xlink="http://www.w3.org/1999/xlink" width="290" height="130" viewBox="0.999 160 289 130"><path paint-order="stroke fill markers" fill-rule="evenodd" d="M145.5 290C65.59 290 .998 225.408.998 160h289c0 65.408-64.592 130-144.5 130z"/></svg></svg><svg width="106" height="106" xmlns="http://www.w3.org/2000/svg" xmlns:xlink="http://www.w3.org/1999/xlink" xmlns:svgjs="http://svgjs.com/svgjs" fill="#fff" opacity=".141" x="20" y="76"><svg xmlns="http://www.w3.org/2000/svg" xmlns:xlink="http://www.w3.org/1999/xlink" width="106" height="106" viewBox="0.999 1 105 105"><path paint-order="stroke fill markers" fill-rule="evenodd" d="M53.499 106c-29.032 0-52.5-23.468-52.5-52.5C1 24.467 24.467 1 53.5 1c29.033 0 52.5 23.467 52.5 52.5 0 29.032-23.467 52.5-52.5 52.5z"/></svg></svg><svg width="19" height="19" xmlns="http://www.w3.org/2000/svg" xmlns:xlink="http://www.w3.org/1999/xlink" xmlns:svgjs="http://svgjs.com/svgjs" viewBox="0 0 19 18.999" fill="#fff" opacity=".212" x="150" y="117"><svg xmlns="http://www.w3.org/2000/svg" xmlns:xlink="http://www.w3.org/1999/xlink" width="19" height="19" viewBox="0.999 1 18.001 18"><path paint-order="stroke fill markers" fill-rule="evenodd" d="M9.999 19c-4.977 0-9-4.023-9-9s4.023-9 9-9 9 4.023 9 9-4.023 9-9 9z"/></svg></svg><svg width="14" height="14" xmlns="http://www.w3.org/2000/svg" xmlns:xlink="http://www.w3.org/1999/xlink" xmlns:svgjs="http://svgjs.com/svgjs" viewBox="0 0 13.999 14" fill="#fff" opacity=".212" x="152" y="218"><svg xmlns="http://www.w3.org/2000/svg" xmlns:xlink="http://www.w3.org/1999/xlink" width="14" height="14" viewBox="0.999 1 12.999 13"><path paint-order="stroke fill markers" fill-rule="evenodd" d="M7.499 14a6.494 6.494 0 0 1-6.5-6.5C1 3.905 3.905 1 7.5 1s6.5 2.905 6.5 6.5c0 3.594-2.906 6.5-6.5 6.5z"/></svg></svg><svg width="22" height="22" xmlns="http://www.w3.org/2000/svg" xmlns:xlink="http://www.w3.org/1999/xlink" xmlns:svgjs="http://svgjs.com/svgjs" viewBox="0 0 22 21.999" fill="#fff" opacity=".212" x="360" y="327"><svg xmlns="http://www.w3.org/2000/svg" xmlns:xlink="http://www.w3.org/1999/xlink" width="22" height="22" viewBox="0.999 1 21.001 21"><path paint-order="stroke fill markers" fill-rule="evenodd" d="M11.5 22A10.49 10.49 0 0 1 .998 11.5 10.49 10.49 0 0 1 11.499 1 10.49 10.49 0 0 1 22 11.5 10.49 10.49 0 0 1 11.5 22z"/></svg></svg><svg width="30" height="30" xmlns="http://www.w3.org/2000/svg" xmlns:xlink="http://www.w3.org/1999/xlink" xmlns:svgjs="http://svgjs.com/svgjs" fill="#fff" opacity=".212" x="223" y="129"><svg xmlns="http://www.w3.org/2000/svg" xmlns:xlink="http://www.w3.org/1999/xlink" width="30" height="30" viewBox="0.999 1 29 29"><path paint-order="stroke fill markers" fill-rule="evenodd" d="M15.499 30C7.48 30 .999 23.518.999 15.5.999 7.48 7.48 1 15.499 1s14.5 6.481 14.5 14.5c0 8.018-6.481 14.5-14.5 14.5z"/></svg></svg><svg width="144" height="233" xmlns="http://www.w3.org/2000/svg" xmlns:xlink="http://www.w3.org/1999/xlink" xmlns:svgjs="http://svgjs.com/svgjs" viewBox="0 44.5 144 144" fill="#fff" opacity=".141" y="218"><svg xmlns="http://www.w3.org/2000/svg" xmlns:xlink="http://www.w3.org/1999/xlink" width="144" height="233" viewBox="0.999 1 232 232"><path paint-order="stroke fill markers" fill-rule="evenodd" d="M116.999 233c-64.148 0-116-51.852-116-116S52.851 1 117 1s116 51.852 116 116-51.852 116-116 116z"/></svg></svg><svg width="202" height="113" xmlns="http://www.w3.org/2000/svg" xmlns:xlink="http://www.w3.org/1999/xlink" xmlns:svgjs="http://svgjs.com/svgjs" viewBox="223 151 202 113" x="223" y="151"><svg width="202" height="113" xmlns="http://www.w3.org/2000/svg" xmlns:xlink="http://www.w3.org/1999/xlink" xmlns:svgjs="http://svgjs.com/svgjs" viewBox="0 0.101 202 112.799" fill="#fff" x="223" y="151"><svg xmlns="http://www.w3.org/2000/svg" width="202" height="113" viewBox="0.999 1 200.12 111.749"><path paint-order="stroke fill markers" fill-rule="evenodd" d="M201.12 105.172c0 4.171-3.713 7.577-8.242 7.577H9.24c-4.529 0-8.241-3.406-8.241-7.577 0-4.155 3.712-7.543 8.241-7.543h183.638c4.53 0 8.241 3.388 8.241 7.543zM110.67 10.16c-.255-5.09-4.444-9.16-9.62-9.16-5.143 0-9.314 4.035-9.587 9.11a77.801 77.801 0 0 1 9.4-.58c3.303 0 6.589.222 9.807.63zm74.817 80.777H16.63C20.035 47.279 56.525 12.9 101.05 12.9c44.544 0 81.033 34.378 84.438 78.036zM91.396 20.325S44.06 30.644 29.929 83.053h17.894s9.91-43.708 43.573-62.728z"/></svg></svg></svg></svg></svg></svg>